<?xml version="1.0" encoding="UTF-8" standalone="no"?>
<!DOCTYPE svg PUBLIC "-//W3C//DTD SVG 1.1//EN"
 "http://www.w3.org/Graphics/SVG/1.1/DTD/svg11.dtd">
<!-- Generated by graphviz version 6.0.1 (20220911.1526)
 -->
<!-- Pages: 1 -->
<svg width="3480pt" height="653pt"
 viewBox="0.00 0.00 3480.06 653.00" xmlns="http://www.w3.org/2000/svg" xmlns:xlink="http://www.w3.org/1999/xlink">
<g id="graph0" class="graph" transform="scale(1 1) rotate(0) translate(4 649)">
<polygon fill="white" stroke="none" points="-4,4 -4,-649 3476.06,-649 3476.06,4 -4,4"/>
<!-- 0 -->
<g id="node1" class="node">
<title>0</title>
<ellipse fill="none" stroke="black" cx="249.72" cy="-627" rx="53.89" ry="18"/>
<text text-anchor="middle" x="249.72" y="-623.3" font-family="Times,serif" font-size="14.00">Stack(0x80)</text>
</g>
<!-- 2 -->
<g id="node3" class="node">
<title>2</title>
<ellipse fill="none" stroke="black" cx="249.72" cy="-540" rx="53.89" ry="18"/>
<text text-anchor="middle" x="249.72" y="-536.3" font-family="Times,serif" font-size="14.00">Stack(0x80)</text>
</g>
<!-- 0&#45;&gt;2 -->
<g id="edge1" class="edge">
<title>0&#45;&gt;2</title>
<path fill="none" stroke="black" d="M249.72,-608.8C249.72,-597.16 249.72,-581.55 249.72,-568.24"/>
<polygon fill="black" stroke="black" points="253.22,-568.18 249.72,-558.18 246.22,-568.18 253.22,-568.18"/>
<text text-anchor="middle" x="276.72" y="-579.8" font-family="Times,serif" font-size="14.00">Duplicant</text>
</g>
<!-- 1 -->
<g id="node2" class="node">
<title>1</title>
<ellipse fill="none" stroke="black" cx="375.72" cy="-627" rx="53.89" ry="18"/>
<text text-anchor="middle" x="375.72" y="-623.3" font-family="Times,serif" font-size="14.00">Stack(0x40)</text>
</g>
<!-- 3 -->
<g id="node4" class="node">
<title>3</title>
<ellipse fill="none" stroke="black" cx="375.72" cy="-540" rx="53.89" ry="18"/>
<text text-anchor="middle" x="375.72" y="-536.3" font-family="Times,serif" font-size="14.00">Stack(0x40)</text>
</g>
<!-- 1&#45;&gt;3 -->
<g id="edge2" class="edge">
<title>1&#45;&gt;3</title>
<path fill="none" stroke="black" d="M375.72,-608.8C375.72,-597.16 375.72,-581.55 375.72,-568.24"/>
<polygon fill="black" stroke="black" points="379.22,-568.18 375.72,-558.18 372.22,-568.18 379.22,-568.18"/>
<text text-anchor="middle" x="402.72" y="-579.8" font-family="Times,serif" font-size="14.00">Duplicant</text>
</g>
<!-- 4 -->
<g id="node5" class="node">
<title>4</title>
<ellipse fill="none" stroke="black" cx="334.72" cy="-453" rx="334.94" ry="18"/>
<text text-anchor="middle" x="334.72" y="-449.3" font-family="Times,serif" font-size="14.00">Memory(FromStack { offset: NodeIndex(3), stack_elem: NodeIndex(2), one_byte: false })</text>
</g>
<!-- 2&#45;&gt;4 -->
<g id="edge4" class="edge">
<title>2&#45;&gt;4</title>
<path fill="none" stroke="black" d="M262.6,-522.1C270.55,-512.07 281.22,-499.34 291.72,-489 295.66,-485.12 300.01,-481.21 304.37,-477.49"/>
<polygon fill="black" stroke="black" points="306.69,-480.11 312.16,-471.04 302.22,-474.72 306.69,-480.11"/>
<text text-anchor="middle" x="320.72" y="-492.8" font-family="Times,serif" font-size="14.00">MstoreVal</text>
</g>
<!-- 3&#45;&gt;4 -->
<g id="edge3" class="edge">
<title>3&#45;&gt;4</title>
<path fill="none" stroke="black" d="M367.42,-521.8C361.7,-509.93 353.98,-493.93 347.48,-480.45"/>
<polygon fill="black" stroke="black" points="350.5,-478.66 343,-471.18 344.2,-481.7 350.5,-478.66"/>
<text text-anchor="middle" x="388.22" y="-492.8" font-family="Times,serif" font-size="14.00">MstoreLoc</text>
</g>
<!-- 5 -->
<g id="node6" class="node">
<title>5</title>
<ellipse fill="none" stroke="black" cx="1010.72" cy="-627" rx="49.29" ry="18"/>
<text text-anchor="middle" x="1010.72" y="-623.3" font-family="Times,serif" font-size="14.00">Stack(0x4)</text>
</g>
<!-- 6 -->
<g id="node7" class="node">
<title>6</title>
<ellipse fill="none" stroke="black" cx="803.72" cy="-540" rx="49.29" ry="18"/>
<text text-anchor="middle" x="803.72" y="-536.3" font-family="Times,serif" font-size="14.00">Stack(0x4)</text>
</g>
<!-- 5&#45;&gt;6 -->
<g id="edge5" class="edge">
<title>5&#45;&gt;6</title>
<path fill="none" stroke="black" d="M979.28,-613.09C943.41,-598.36 884.63,-574.22 845.07,-557.98"/>
<polygon fill="black" stroke="black" points="846.03,-554.59 835.46,-554.03 843.38,-561.07 846.03,-554.59"/>
<text text-anchor="middle" x="946.72" y="-579.8" font-family="Times,serif" font-size="14.00">Duplicant</text>
</g>
<!-- 37 -->
<g id="node38" class="node">
<title>37</title>
<ellipse fill="none" stroke="black" cx="1217.72" cy="-540" rx="49.29" ry="18"/>
<text text-anchor="middle" x="1217.72" y="-536.3" font-family="Times,serif" font-size="14.00">Stack(0x4)</text>
</g>
<!-- 5&#45;&gt;37 -->
<g id="edge33" class="edge">
<title>5&#45;&gt;37</title>
<path fill="none" stroke="black" d="M1042.16,-613.09C1078.03,-598.36 1136.81,-574.22 1176.37,-557.98"/>
<polygon fill="black" stroke="black" points="1178.06,-561.07 1185.99,-554.03 1175.41,-554.59 1178.06,-561.07"/>
<text text-anchor="middle" x="1153.72" y="-579.8" font-family="Times,serif" font-size="14.00">Duplicant</text>
</g>
<!-- 8 -->
<g id="node9" class="node">
<title>8</title>
<ellipse fill="none" stroke="black" cx="803.72" cy="-453" rx="116.18" ry="18"/>
<text text-anchor="middle" x="803.72" y="-449.3" font-family="Times,serif" font-size="14.00">Stack(Intrinsic::CallDataSize)</text>
</g>
<!-- 6&#45;&gt;8 -->
<g id="edge7" class="edge">
<title>6&#45;&gt;8</title>
<path fill="none" stroke="black" d="M803.72,-521.8C803.72,-510.16 803.72,-494.55 803.72,-481.24"/>
<polygon fill="black" stroke="black" points="807.22,-481.18 803.72,-471.18 800.22,-481.18 807.22,-481.18"/>
<text text-anchor="middle" x="820.72" y="-492.8" font-family="Times,serif" font-size="14.00">LtRhs</text>
</g>
<!-- 7 -->
<g id="node8" class="node">
<title>7</title>
<ellipse fill="none" stroke="black" cx="987.72" cy="-540" rx="116.18" ry="18"/>
<text text-anchor="middle" x="987.72" y="-536.3" font-family="Times,serif" font-size="14.00">Stack(Intrinsic::CallDataSize)</text>
</g>
<!-- 7&#45;&gt;8 -->
<g id="edge6" class="edge">
<title>7&#45;&gt;8</title>
<path fill="none" stroke="black" d="M952.68,-522.81C922.97,-509.09 880.21,-489.33 848.11,-474.51"/>
<polygon fill="black" stroke="black" points="849.49,-471.29 838.94,-470.27 846.56,-477.64 849.49,-471.29"/>
<text text-anchor="middle" x="924.22" y="-492.8" font-family="Times,serif" font-size="14.00">LtLhs</text>
</g>
<!-- 9 -->
<g id="node10" class="node">
<title>9</title>
<ellipse fill="none" stroke="black" cx="708.72" cy="-366" rx="116.18" ry="18"/>
<text text-anchor="middle" x="708.72" y="-362.3" font-family="Times,serif" font-size="14.00">Stack(Intrinsic::CallDataSize)</text>
</g>
<!-- 8&#45;&gt;9 -->
<g id="edge8" class="edge">
<title>8&#45;&gt;9</title>
<path fill="none" stroke="black" d="M784.95,-435.21C770.86,-422.6 751.37,-405.16 735.62,-391.07"/>
<polygon fill="black" stroke="black" points="737.56,-388.11 727.78,-384.05 732.89,-393.33 737.56,-388.11"/>
<text text-anchor="middle" x="780.72" y="-405.8" font-family="Times,serif" font-size="14.00">IsZero</text>
</g>
<!-- 11 -->
<g id="node12" class="node">
<title>11</title>
<ellipse fill="none" stroke="black" cx="881.72" cy="-279" rx="52.79" ry="18"/>
<text text-anchor="middle" x="881.72" y="-275.3" font-family="Times,serif" font-size="14.00">Code(0x16)</text>
</g>
<!-- 9&#45;&gt;11 -->
<g id="edge10" class="edge">
<title>9&#45;&gt;11</title>
<path fill="none" stroke="black" d="M710.59,-347.71C712.7,-336.75 717.18,-323.15 726.72,-315 759.06,-287.36 779.31,-306.72 820.72,-297 824.81,-296.04 829.05,-294.99 833.28,-293.89"/>
<polygon fill="black" stroke="black" points="834.36,-297.23 843.12,-291.28 832.56,-290.46 834.36,-297.23"/>
<text text-anchor="middle" x="805.72" y="-318.8" font-family="Times,serif" font-size="14.00">ConditionalJumpConditional</text>
</g>
<!-- 10 -->
<g id="node11" class="node">
<title>10</title>
<ellipse fill="none" stroke="black" cx="896.72" cy="-366" rx="53.89" ry="18"/>
<text text-anchor="middle" x="896.72" y="-362.3" font-family="Times,serif" font-size="14.00">Stack(0x16)</text>
</g>
<!-- 10&#45;&gt;11 -->
<g id="edge9" class="edge">
<title>10&#45;&gt;11</title>
<path fill="none" stroke="black" d="M893.68,-347.8C891.63,-336.16 888.88,-320.55 886.53,-307.24"/>
<polygon fill="black" stroke="black" points="889.94,-306.41 884.75,-297.18 883.04,-307.63 889.94,-306.41"/>
<text text-anchor="middle" x="948.22" y="-318.8" font-family="Times,serif" font-size="14.00">ConditionalJumpLoc</text>
</g>
<!-- 12 -->
<g id="node13" class="node">
<title>12</title>
<ellipse fill="none" stroke="black" cx="2154.72" cy="-627" rx="49.29" ry="18"/>
<text text-anchor="middle" x="2154.72" y="-623.3" font-family="Times,serif" font-size="14.00">Stack(0x0)</text>
</g>
<!-- 13 -->
<g id="node14" class="node">
<title>13</title>
<ellipse fill="none" stroke="black" cx="2065.72" cy="-540" rx="49.29" ry="18"/>
<text text-anchor="middle" x="2065.72" y="-536.3" font-family="Times,serif" font-size="14.00">Stack(0x0)</text>
</g>
<!-- 12&#45;&gt;13 -->
<g id="edge11" class="edge">
<title>12&#45;&gt;13</title>
<path fill="none" stroke="black" d="M2120.14,-613.87C2108.33,-608.37 2095.83,-600.84 2086.72,-591 2080.72,-584.51 2076.3,-576.06 2073.1,-567.96"/>
<polygon fill="black" stroke="black" points="2076.37,-566.71 2069.79,-558.41 2069.76,-569 2076.37,-566.71"/>
<text text-anchor="middle" x="2113.72" y="-579.8" font-family="Times,serif" font-size="14.00">Duplicant</text>
</g>
<!-- 53 -->
<g id="node54" class="node">
<title>53</title>
<ellipse fill="none" stroke="black" cx="2312.72" cy="-540" rx="49.29" ry="18"/>
<text text-anchor="middle" x="2312.72" y="-536.3" font-family="Times,serif" font-size="14.00">Stack(0x0)</text>
</g>
<!-- 12&#45;&gt;53 -->
<g id="edge49" class="edge">
<title>12&#45;&gt;53</title>
<path fill="none" stroke="black" d="M2181.17,-611.77C2207.48,-597.61 2248.04,-575.8 2277.17,-560.13"/>
<polygon fill="black" stroke="black" points="2279.04,-563.09 2286.19,-555.27 2275.72,-556.93 2279.04,-563.09"/>
<text text-anchor="middle" x="2270.72" y="-579.8" font-family="Times,serif" font-size="14.00">Duplicant</text>
</g>
<!-- 54 -->
<g id="node55" class="node">
<title>54</title>
<ellipse fill="none" stroke="black" cx="2294.72" cy="-453" rx="90.98" ry="18"/>
<text text-anchor="middle" x="2294.72" y="-449.3" font-family="Times,serif" font-size="14.00">Exit(Revert, 0x0, 0x0)</text>
</g>
<!-- 12&#45;&gt;54 -->
<g id="edge51" class="edge">
<title>12&#45;&gt;54</title>
<path fill="none" stroke="black" d="M2151.51,-608.89C2148.34,-586.84 2146.2,-548.22 2163.72,-522 2179.83,-497.9 2207.27,-481.82 2232.89,-471.38"/>
<polygon fill="black" stroke="black" points="2234.15,-474.65 2242.23,-467.79 2231.64,-468.12 2234.15,-474.65"/>
<text text-anchor="middle" x="2209.22" y="-536.3" font-family="Times,serif" font-size="14.00">ReturnMemSize</text>
</g>
<!-- 14 -->
<g id="node15" class="node">
<title>14</title>
<ellipse fill="none" stroke="black" cx="2060.72" cy="-453" rx="124.58" ry="18"/>
<text text-anchor="middle" x="2060.72" y="-449.3" font-family="Times,serif" font-size="14.00">Stack(Calldata[NodeIndex(13)])</text>
</g>
<!-- 13&#45;&gt;14 -->
<g id="edge12" class="edge">
<title>13&#45;&gt;14</title>
<path fill="none" stroke="black" d="M2063.45,-521.94C2062.77,-516.24 2062.11,-509.86 2061.72,-504 2061.23,-496.67 2060.95,-488.72 2060.8,-481.36"/>
<polygon fill="black" stroke="black" points="2064.3,-481.09 2060.67,-471.14 2057.3,-481.19 2064.3,-481.09"/>
<text text-anchor="middle" x="2101.22" y="-492.8" font-family="Times,serif" font-size="14.00">CalldataOffset</text>
</g>
<!-- 16 -->
<g id="node17" class="node">
<title>16</title>
<ellipse fill="none" stroke="black" cx="2453.72" cy="-366" rx="124.58" ry="18"/>
<text text-anchor="middle" x="2453.72" y="-362.3" font-family="Times,serif" font-size="14.00">Stack(Calldata[NodeIndex(13)])</text>
</g>
<!-- 14&#45;&gt;16 -->
<g id="edge14" class="edge">
<title>14&#45;&gt;16</title>
<path fill="none" stroke="black" d="M2126.94,-437.68C2196.2,-422.7 2304.76,-399.22 2377.53,-383.48"/>
<polygon fill="black" stroke="black" points="2378.52,-386.85 2387.55,-381.31 2377.04,-380 2378.52,-386.85"/>
<text text-anchor="middle" x="2305.72" y="-405.8" font-family="Times,serif" font-size="14.00">RShiftee</text>
</g>
<!-- 15 -->
<g id="node16" class="node">
<title>15</title>
<ellipse fill="none" stroke="black" cx="2456.72" cy="-453" rx="53.09" ry="18"/>
<text text-anchor="middle" x="2456.72" y="-449.3" font-family="Times,serif" font-size="14.00">Stack(0xe0)</text>
</g>
<!-- 15&#45;&gt;16 -->
<g id="edge13" class="edge">
<title>15&#45;&gt;16</title>
<path fill="none" stroke="black" d="M2456.11,-434.8C2455.7,-423.16 2455.15,-407.55 2454.68,-394.24"/>
<polygon fill="black" stroke="black" points="2458.18,-394.05 2454.33,-384.18 2451.18,-394.29 2458.18,-394.05"/>
<text text-anchor="middle" x="2479.22" y="-405.8" font-family="Times,serif" font-size="14.00">RShiftor</text>
</g>
<!-- 17 -->
<g id="node18" class="node">
<title>17</title>
<ellipse fill="none" stroke="black" cx="2450.72" cy="-279" rx="124.58" ry="18"/>
<text text-anchor="middle" x="2450.72" y="-275.3" font-family="Times,serif" font-size="14.00">Stack(Calldata[NodeIndex(13)])</text>
</g>
<!-- 16&#45;&gt;17 -->
<g id="edge15" class="edge">
<title>16&#45;&gt;17</title>
<path fill="none" stroke="black" d="M2453.11,-347.8C2452.7,-336.16 2452.15,-320.55 2451.68,-307.24"/>
<polygon fill="black" stroke="black" points="2455.18,-307.05 2451.33,-297.18 2448.18,-307.29 2455.18,-307.05"/>
<text text-anchor="middle" x="2479.72" y="-318.8" font-family="Times,serif" font-size="14.00">Duplicant</text>
</g>
<!-- 23 -->
<g id="node24" class="node">
<title>23</title>
<ellipse fill="none" stroke="black" cx="2718.72" cy="-279" rx="124.58" ry="18"/>
<text text-anchor="middle" x="2718.72" y="-275.3" font-family="Times,serif" font-size="14.00">Stack(Calldata[NodeIndex(13)])</text>
</g>
<!-- 16&#45;&gt;23 -->
<g id="edge21" class="edge">
<title>16&#45;&gt;23</title>
<path fill="none" stroke="black" d="M2502.33,-349.41C2546.83,-335.14 2612.77,-313.98 2660.16,-298.78"/>
<polygon fill="black" stroke="black" points="2661.52,-302.02 2669.98,-295.64 2659.38,-295.36 2661.52,-302.02"/>
<text text-anchor="middle" x="2621.22" y="-318.8" font-family="Times,serif" font-size="14.00">EqRhs</text>
</g>
<!-- 19 -->
<g id="node20" class="node">
<title>19</title>
<ellipse fill="none" stroke="black" cx="2450.72" cy="-192" rx="124.58" ry="18"/>
<text text-anchor="middle" x="2450.72" y="-188.3" font-family="Times,serif" font-size="14.00">Stack(Calldata[NodeIndex(13)])</text>
</g>
<!-- 17&#45;&gt;19 -->
<g id="edge17" class="edge">
<title>17&#45;&gt;19</title>
<path fill="none" stroke="black" d="M2450.72,-260.8C2450.72,-249.16 2450.72,-233.55 2450.72,-220.24"/>
<polygon fill="black" stroke="black" points="2454.22,-220.18 2450.72,-210.18 2447.22,-220.18 2454.22,-220.18"/>
<text text-anchor="middle" x="2469.22" y="-231.8" font-family="Times,serif" font-size="14.00">EqRhs</text>
</g>
<!-- 18 -->
<g id="node19" class="node">
<title>18</title>
<ellipse fill="none" stroke="black" cx="2227.72" cy="-279" rx="79.89" ry="18"/>
<text text-anchor="middle" x="2227.72" y="-275.3" font-family="Times,serif" font-size="14.00">Stack(0x799320bb)</text>
</g>
<!-- 18&#45;&gt;19 -->
<g id="edge16" class="edge">
<title>18&#45;&gt;19</title>
<path fill="none" stroke="black" d="M2266.56,-263.19C2303.3,-249.19 2358.68,-228.08 2399.11,-212.67"/>
<polygon fill="black" stroke="black" points="2400.43,-215.91 2408.53,-209.08 2397.94,-209.37 2400.43,-215.91"/>
<text text-anchor="middle" x="2370.72" y="-231.8" font-family="Times,serif" font-size="14.00">EqLhs</text>
</g>
<!-- 21 -->
<g id="node22" class="node">
<title>21</title>
<ellipse fill="none" stroke="black" cx="2481.72" cy="-105" rx="57.39" ry="18"/>
<text text-anchor="middle" x="2481.72" y="-101.3" font-family="Times,serif" font-size="14.00">Code(0x82d)</text>
</g>
<!-- 19&#45;&gt;21 -->
<g id="edge19" class="edge">
<title>19&#45;&gt;21</title>
<path fill="none" stroke="black" d="M2456.99,-173.8C2461.28,-162.05 2467.05,-146.24 2471.93,-132.84"/>
<polygon fill="black" stroke="black" points="2475.32,-133.77 2475.46,-123.18 2468.74,-131.37 2475.32,-133.77"/>
<text text-anchor="middle" x="2547.72" y="-144.8" font-family="Times,serif" font-size="14.00">ConditionalJumpConditional</text>
</g>
<!-- 20 -->
<g id="node21" class="node">
<title>20</title>
<ellipse fill="none" stroke="black" cx="2846.72" cy="-192" rx="57.69" ry="18"/>
<text text-anchor="middle" x="2846.72" y="-188.3" font-family="Times,serif" font-size="14.00">Stack(0x82d)</text>
</g>
<!-- 20&#45;&gt;21 -->
<g id="edge18" class="edge">
<title>20&#45;&gt;21</title>
<path fill="none" stroke="black" d="M2803.51,-179.87C2795.6,-177.88 2787.42,-175.86 2779.72,-174 2695.35,-153.67 2597.16,-131.57 2537.24,-118.25"/>
<polygon fill="black" stroke="black" points="2537.76,-114.78 2527.24,-116.03 2536.24,-121.61 2537.76,-114.78"/>
<text text-anchor="middle" x="2756.22" y="-144.8" font-family="Times,serif" font-size="14.00">ConditionalJumpLoc</text>
</g>
<!-- 22 -->
<g id="node23" class="node">
<title>22</title>
<ellipse fill="none" stroke="black" cx="2718.72" cy="-366" rx="79.09" ry="18"/>
<text text-anchor="middle" x="2718.72" y="-362.3" font-family="Times,serif" font-size="14.00">Stack(0xc64b3bb5)</text>
</g>
<!-- 22&#45;&gt;23 -->
<g id="edge20" class="edge">
<title>22&#45;&gt;23</title>
<path fill="none" stroke="black" d="M2718.72,-347.8C2718.72,-336.16 2718.72,-320.55 2718.72,-307.24"/>
<polygon fill="black" stroke="black" points="2722.22,-307.18 2718.72,-297.18 2715.22,-307.18 2722.22,-307.18"/>
<text text-anchor="middle" x="2736.72" y="-318.8" font-family="Times,serif" font-size="14.00">EqLhs</text>
</g>
<!-- 25 -->
<g id="node26" class="node">
<title>25</title>
<ellipse fill="none" stroke="black" cx="2718.72" cy="-192" rx="51.99" ry="18"/>
<text text-anchor="middle" x="2718.72" y="-188.3" font-family="Times,serif" font-size="14.00">Code(0x3a)</text>
</g>
<!-- 23&#45;&gt;25 -->
<g id="edge23" class="edge">
<title>23&#45;&gt;25</title>
<path fill="none" stroke="black" d="M2718.72,-260.8C2718.72,-249.16 2718.72,-233.55 2718.72,-220.24"/>
<polygon fill="black" stroke="black" points="2722.22,-220.18 2718.72,-210.18 2715.22,-220.18 2722.22,-220.18"/>
<text text-anchor="middle" x="2797.72" y="-231.8" font-family="Times,serif" font-size="14.00">ConditionalJumpConditional</text>
</g>
<!-- 24 -->
<g id="node25" class="node">
<title>24</title>
<ellipse fill="none" stroke="black" cx="2914.72" cy="-279" rx="53.09" ry="18"/>
<text text-anchor="middle" x="2914.72" y="-275.3" font-family="Times,serif" font-size="14.00">Stack(0x3a)</text>
</g>
<!-- 24&#45;&gt;25 -->
<g id="edge22" class="edge">
<title>24&#45;&gt;25</title>
<path fill="none" stroke="black" d="M2907.46,-260.95C2901.81,-249.79 2892.88,-235.88 2880.72,-228 2842.46,-203.2 2824.18,-220.13 2779.72,-210 2775.56,-209.05 2771.26,-208 2766.96,-206.9"/>
<polygon fill="black" stroke="black" points="2767.54,-203.43 2756.98,-204.26 2765.75,-210.2 2767.54,-203.43"/>
<text text-anchor="middle" x="2954.22" y="-231.8" font-family="Times,serif" font-size="14.00">ConditionalJumpLoc</text>
</g>
<!-- 26 -->
<g id="node27" class="node">
<title>26</title>
<ellipse fill="none" stroke="black" cx="2351.72" cy="-627" rx="104.78" ry="18"/>
<text text-anchor="middle" x="2351.72" y="-623.3" font-family="Times,serif" font-size="14.00">Stack(Intrinsic::CallValue)</text>
</g>
<!-- 28 -->
<g id="node29" class="node">
<title>28</title>
<ellipse fill="none" stroke="black" cx="2484.72" cy="-540" rx="57.39" ry="18"/>
<text text-anchor="middle" x="2484.72" y="-536.3" font-family="Times,serif" font-size="14.00">Code(0x829)</text>
</g>
<!-- 26&#45;&gt;28 -->
<g id="edge25" class="edge">
<title>26&#45;&gt;28</title>
<path fill="none" stroke="black" d="M2345.46,-609.03C2342.74,-598.48 2341.58,-585.21 2348.72,-576 2358.16,-563.83 2391.4,-555.15 2422.65,-549.47"/>
<polygon fill="black" stroke="black" points="2423.44,-552.89 2432.7,-547.74 2422.25,-545.99 2423.44,-552.89"/>
<text text-anchor="middle" x="2427.72" y="-579.8" font-family="Times,serif" font-size="14.00">ConditionalJumpConditional</text>
</g>
<!-- 27 -->
<g id="node28" class="node">
<title>27</title>
<ellipse fill="none" stroke="black" cx="2532.72" cy="-627" rx="57.69" ry="18"/>
<text text-anchor="middle" x="2532.72" y="-623.3" font-family="Times,serif" font-size="14.00">Stack(0x829)</text>
</g>
<!-- 27&#45;&gt;28 -->
<g id="edge24" class="edge">
<title>27&#45;&gt;28</title>
<path fill="none" stroke="black" d="M2526.3,-608.87C2522.32,-598.99 2516.82,-586.49 2510.72,-576 2508.72,-572.56 2506.45,-569.07 2504.1,-565.68"/>
<polygon fill="black" stroke="black" points="2506.92,-563.6 2498.21,-557.56 2501.26,-567.71 2506.92,-563.6"/>
<text text-anchor="middle" x="2576.22" y="-579.8" font-family="Times,serif" font-size="14.00">ConditionalJumpLoc</text>
</g>
<!-- 29 -->
<g id="node30" class="node">
<title>29</title>
<ellipse fill="none" stroke="black" cx="2682.72" cy="-627" rx="53.89" ry="18"/>
<text text-anchor="middle" x="2682.72" y="-623.3" font-family="Times,serif" font-size="14.00">Stack(0x20)</text>
</g>
<!-- 30 -->
<g id="node31" class="node">
<title>30</title>
<ellipse fill="none" stroke="black" cx="2688.72" cy="-540" rx="53.89" ry="18"/>
<text text-anchor="middle" x="2688.72" y="-536.3" font-family="Times,serif" font-size="14.00">Stack(0x20)</text>
</g>
<!-- 29&#45;&gt;30 -->
<g id="edge26" class="edge">
<title>29&#45;&gt;30</title>
<path fill="none" stroke="black" d="M2683.93,-608.8C2684.76,-597.16 2685.86,-581.55 2686.8,-568.24"/>
<polygon fill="black" stroke="black" points="2690.3,-568.4 2687.51,-558.18 2683.31,-567.9 2690.3,-568.4"/>
<text text-anchor="middle" x="2713.72" y="-579.8" font-family="Times,serif" font-size="14.00">Duplicant</text>
</g>
<!-- 34 -->
<g id="node35" class="node">
<title>34</title>
<ellipse fill="none" stroke="black" cx="2778.72" cy="-453" rx="116.18" ry="18"/>
<text text-anchor="middle" x="2778.72" y="-449.3" font-family="Times,serif" font-size="14.00">Stack(Intrinsic::CallDataSize)</text>
</g>
<!-- 30&#45;&gt;34 -->
<g id="edge30" class="edge">
<title>30&#45;&gt;34</title>
<path fill="none" stroke="black" d="M2706.07,-522.61C2719.47,-509.96 2738.21,-492.26 2753.29,-478.01"/>
<polygon fill="black" stroke="black" points="2755.94,-480.33 2760.8,-470.92 2751.13,-475.24 2755.94,-480.33"/>
<text text-anchor="middle" x="2758.22" y="-492.8" font-family="Times,serif" font-size="14.00">SltRhs</text>
</g>
<!-- 31 -->
<g id="node32" class="node">
<title>31</title>
<ellipse fill="none" stroke="black" cx="2987.72" cy="-627" rx="233.16" ry="18"/>
<text text-anchor="middle" x="2987.72" y="-623.3" font-family="Times,serif" font-size="14.00">Stack(0xfffffffffffffffffffffffffffffffffffffffffffffffffffffffffffffffc)</text>
</g>
<!-- 33 -->
<g id="node34" class="node">
<title>33</title>
<ellipse fill="none" stroke="black" cx="2987.72" cy="-540" rx="116.18" ry="18"/>
<text text-anchor="middle" x="2987.72" y="-536.3" font-family="Times,serif" font-size="14.00">Stack(Intrinsic::CallDataSize)</text>
</g>
<!-- 31&#45;&gt;33 -->
<g id="edge28" class="edge">
<title>31&#45;&gt;33</title>
<path fill="none" stroke="black" d="M2987.72,-608.8C2987.72,-597.16 2987.72,-581.55 2987.72,-568.24"/>
<polygon fill="black" stroke="black" points="2991.22,-568.18 2987.72,-558.18 2984.22,-568.18 2991.22,-568.18"/>
<text text-anchor="middle" x="3009.22" y="-579.8" font-family="Times,serif" font-size="14.00">Addend</text>
</g>
<!-- 32 -->
<g id="node33" class="node">
<title>32</title>
<ellipse fill="none" stroke="black" cx="3355.72" cy="-627" rx="116.18" ry="18"/>
<text text-anchor="middle" x="3355.72" y="-623.3" font-family="Times,serif" font-size="14.00">Stack(Intrinsic::CallDataSize)</text>
</g>
<!-- 32&#45;&gt;33 -->
<g id="edge27" class="edge">
<title>32&#45;&gt;33</title>
<path fill="none" stroke="black" d="M3293.71,-611.68C3228.99,-596.73 3127.62,-573.31 3059.48,-557.58"/>
<polygon fill="black" stroke="black" points="3060.21,-554.15 3049.68,-555.31 3058.63,-560.97 3060.21,-554.15"/>
<text text-anchor="middle" x="3216.22" y="-579.8" font-family="Times,serif" font-size="14.00">Addend</text>
</g>
<!-- 33&#45;&gt;34 -->
<g id="edge29" class="edge">
<title>33&#45;&gt;34</title>
<path fill="none" stroke="black" d="M2948.41,-523.01C2914.22,-509.11 2864.52,-488.9 2827.74,-473.94"/>
<polygon fill="black" stroke="black" points="2828.79,-470.59 2818.21,-470.06 2826.15,-477.07 2828.79,-470.59"/>
<text text-anchor="middle" x="2914.72" y="-492.8" font-family="Times,serif" font-size="14.00">SltLhs</text>
</g>
<!-- 36 -->
<g id="node37" class="node">
<title>36</title>
<ellipse fill="none" stroke="black" cx="2881.72" cy="-366" rx="57.39" ry="18"/>
<text text-anchor="middle" x="2881.72" y="-362.3" font-family="Times,serif" font-size="14.00">Code(0x825)</text>
</g>
<!-- 34&#45;&gt;36 -->
<g id="edge32" class="edge">
<title>34&#45;&gt;36</title>
<path fill="none" stroke="black" d="M2776.52,-434.53C2776.17,-424.04 2777.54,-411.03 2784.72,-402 2793.91,-390.45 2807.25,-382.7 2821.1,-377.52"/>
<polygon fill="black" stroke="black" points="2822.35,-380.79 2830.73,-374.32 2820.14,-374.15 2822.35,-380.79"/>
<text text-anchor="middle" x="2863.72" y="-405.8" font-family="Times,serif" font-size="14.00">ConditionalJumpConditional</text>
</g>
<!-- 35 -->
<g id="node36" class="node">
<title>35</title>
<ellipse fill="none" stroke="black" cx="2970.72" cy="-453" rx="57.69" ry="18"/>
<text text-anchor="middle" x="2970.72" y="-449.3" font-family="Times,serif" font-size="14.00">Stack(0x825)</text>
</g>
<!-- 35&#45;&gt;36 -->
<g id="edge31" class="edge">
<title>35&#45;&gt;36</title>
<path fill="none" stroke="black" d="M2965.46,-434.64C2961.6,-424.2 2955.5,-411.19 2946.72,-402 2940.55,-395.53 2932.91,-389.99 2925.07,-385.35"/>
<polygon fill="black" stroke="black" points="2926.65,-382.23 2916.2,-380.5 2923.29,-388.37 2926.65,-382.23"/>
<text text-anchor="middle" x="3015.22" y="-405.8" font-family="Times,serif" font-size="14.00">ConditionalJumpLoc</text>
</g>
<!-- 38 -->
<g id="node39" class="node">
<title>38</title>
<ellipse fill="none" stroke="black" cx="1294.72" cy="-453" rx="124.58" ry="18"/>
<text text-anchor="middle" x="1294.72" y="-449.3" font-family="Times,serif" font-size="14.00">Stack(Calldata[NodeIndex(37)])</text>
</g>
<!-- 37&#45;&gt;38 -->
<g id="edge34" class="edge">
<title>37&#45;&gt;38</title>
<path fill="none" stroke="black" d="M1232.57,-522.61C1243.92,-510.07 1259.76,-492.59 1272.61,-478.41"/>
<polygon fill="black" stroke="black" points="1275.27,-480.68 1279.39,-470.92 1270.08,-475.98 1275.27,-480.68"/>
<text text-anchor="middle" x="1301.22" y="-492.8" font-family="Times,serif" font-size="14.00">CalldataOffset</text>
</g>
<!-- 41 -->
<g id="node42" class="node">
<title>41</title>
<ellipse fill="none" stroke="black" cx="1294.72" cy="-366" rx="124.58" ry="18"/>
<text text-anchor="middle" x="1294.72" y="-362.3" font-family="Times,serif" font-size="14.00">Stack(Calldata[NodeIndex(37)])</text>
</g>
<!-- 38&#45;&gt;41 -->
<g id="edge36" class="edge">
<title>38&#45;&gt;41</title>
<path fill="none" stroke="black" d="M1294.72,-434.8C1294.72,-423.16 1294.72,-407.55 1294.72,-394.24"/>
<polygon fill="black" stroke="black" points="1298.22,-394.18 1294.72,-384.18 1291.22,-394.18 1298.22,-394.18"/>
<text text-anchor="middle" x="1321.72" y="-405.8" font-family="Times,serif" font-size="14.00">Duplicant</text>
</g>
<!-- 47 -->
<g id="node48" class="node">
<title>47</title>
<ellipse fill="none" stroke="black" cx="1562.72" cy="-366" rx="124.58" ry="18"/>
<text text-anchor="middle" x="1562.72" y="-362.3" font-family="Times,serif" font-size="14.00">Stack(Calldata[NodeIndex(37)])</text>
</g>
<!-- 38&#45;&gt;47 -->
<g id="edge41" class="edge">
<title>38&#45;&gt;47</title>
<path fill="none" stroke="black" d="M1343.88,-436.41C1388.97,-422.11 1455.85,-400.89 1503.8,-385.69"/>
<polygon fill="black" stroke="black" points="1504.95,-388.99 1513.42,-382.64 1502.83,-382.32 1504.95,-388.99"/>
<text text-anchor="middle" x="1472.72" y="-405.8" font-family="Times,serif" font-size="14.00">Duplicant</text>
</g>
<!-- 39 -->
<g id="node40" class="node">
<title>39</title>
<ellipse fill="none" stroke="black" cx="1060.72" cy="-453" rx="91.78" ry="18"/>
<text text-anchor="middle" x="1060.72" y="-449.3" font-family="Times,serif" font-size="14.00">Stack(0xffffffffffffffff)</text>
</g>
<!-- 40 -->
<g id="node41" class="node">
<title>40</title>
<ellipse fill="none" stroke="black" cx="1060.72" cy="-366" rx="91.78" ry="18"/>
<text text-anchor="middle" x="1060.72" y="-362.3" font-family="Times,serif" font-size="14.00">Stack(0xffffffffffffffff)</text>
</g>
<!-- 39&#45;&gt;40 -->
<g id="edge35" class="edge">
<title>39&#45;&gt;40</title>
<path fill="none" stroke="black" d="M1060.72,-434.8C1060.72,-423.16 1060.72,-407.55 1060.72,-394.24"/>
<polygon fill="black" stroke="black" points="1064.22,-394.18 1060.72,-384.18 1057.22,-394.18 1064.22,-394.18"/>
<text text-anchor="middle" x="1087.72" y="-405.8" font-family="Times,serif" font-size="14.00">Duplicant</text>
</g>
<!-- 42 -->
<g id="node43" class="node">
<title>42</title>
<ellipse fill="none" stroke="black" cx="1076.72" cy="-279" rx="124.58" ry="18"/>
<text text-anchor="middle" x="1076.72" y="-275.3" font-family="Times,serif" font-size="14.00">Stack(Calldata[NodeIndex(37)])</text>
</g>
<!-- 40&#45;&gt;42 -->
<g id="edge38" class="edge">
<title>40&#45;&gt;42</title>
<path fill="none" stroke="black" d="M1063.96,-347.8C1066.15,-336.16 1069.09,-320.55 1071.59,-307.24"/>
<polygon fill="black" stroke="black" points="1075.08,-307.65 1073.49,-297.18 1068.2,-306.36 1075.08,-307.65"/>
<text text-anchor="middle" x="1087.22" y="-318.8" font-family="Times,serif" font-size="14.00">GtRhs</text>
</g>
<!-- 41&#45;&gt;42 -->
<g id="edge37" class="edge">
<title>41&#45;&gt;42</title>
<path fill="none" stroke="black" d="M1253.46,-348.91C1217.61,-334.94 1165.58,-314.65 1127.24,-299.7"/>
<polygon fill="black" stroke="black" points="1128.4,-296.39 1117.81,-296.02 1125.86,-302.92 1128.4,-296.39"/>
<text text-anchor="middle" x="1216.72" y="-318.8" font-family="Times,serif" font-size="14.00">GtLhs</text>
</g>
<!-- 44 -->
<g id="node45" class="node">
<title>44</title>
<ellipse fill="none" stroke="black" cx="869.72" cy="-192" rx="57.39" ry="18"/>
<text text-anchor="middle" x="869.72" y="-188.3" font-family="Times,serif" font-size="14.00">Code(0x822)</text>
</g>
<!-- 42&#45;&gt;44 -->
<g id="edge40" class="edge">
<title>42&#45;&gt;44</title>
<path fill="none" stroke="black" d="M1037.3,-261.81C1001.66,-247.18 949.3,-225.68 912.62,-210.62"/>
<polygon fill="black" stroke="black" points="913.76,-207.3 903.18,-206.74 911.11,-213.78 913.76,-207.3"/>
<text text-anchor="middle" x="1064.72" y="-231.8" font-family="Times,serif" font-size="14.00">ConditionalJumpConditional</text>
</g>
<!-- 43 -->
<g id="node44" class="node">
<title>43</title>
<ellipse fill="none" stroke="black" cx="753.72" cy="-279" rx="57.69" ry="18"/>
<text text-anchor="middle" x="753.72" y="-275.3" font-family="Times,serif" font-size="14.00">Stack(0x822)</text>
</g>
<!-- 43&#45;&gt;44 -->
<g id="edge39" class="edge">
<title>43&#45;&gt;44</title>
<path fill="none" stroke="black" d="M775.27,-262.21C793.5,-248.85 819.81,-229.57 840.03,-214.75"/>
<polygon fill="black" stroke="black" points="842.29,-217.44 848.29,-208.7 838.15,-211.79 842.29,-217.44"/>
<text text-anchor="middle" x="876.22" y="-231.8" font-family="Times,serif" font-size="14.00">ConditionalJumpLoc</text>
</g>
<!-- 45 -->
<g id="node46" class="node">
<title>45</title>
<ellipse fill="none" stroke="black" cx="1952.72" cy="-279" rx="116.18" ry="18"/>
<text text-anchor="middle" x="1952.72" y="-275.3" font-family="Times,serif" font-size="14.00">Stack(Intrinsic::CallDataSize)</text>
</g>
<!-- 49 -->
<g id="node50" class="node">
<title>49</title>
<ellipse fill="none" stroke="black" cx="1922.72" cy="-192" rx="258.05" ry="18"/>
<text text-anchor="middle" x="1922.72" y="-188.3" font-family="Times,serif" font-size="14.00">Stack((Intrinsics: [CallDataSize], Calldata Offsets: [NodeIndex(37)]))</text>
</g>
<!-- 45&#45;&gt;49 -->
<g id="edge45" class="edge">
<title>45&#45;&gt;49</title>
<path fill="none" stroke="black" d="M1946.65,-260.8C1942.5,-249.05 1936.92,-233.24 1932.19,-219.84"/>
<polygon fill="black" stroke="black" points="1935.41,-218.44 1928.78,-210.18 1928.81,-220.77 1935.41,-218.44"/>
<text text-anchor="middle" x="1958.22" y="-231.8" font-family="Times,serif" font-size="14.00">SltRhs</text>
</g>
<!-- 46 -->
<g id="node47" class="node">
<title>46</title>
<ellipse fill="none" stroke="black" cx="1759.72" cy="-366" rx="53.89" ry="18"/>
<text text-anchor="middle" x="1759.72" y="-362.3" font-family="Times,serif" font-size="14.00">Stack(0x23)</text>
</g>
<!-- 48 -->
<g id="node49" class="node">
<title>48</title>
<ellipse fill="none" stroke="black" cx="1693.72" cy="-279" rx="124.58" ry="18"/>
<text text-anchor="middle" x="1693.72" y="-275.3" font-family="Times,serif" font-size="14.00">Stack(Calldata[NodeIndex(37)])</text>
</g>
<!-- 46&#45;&gt;48 -->
<g id="edge43" class="edge">
<title>46&#45;&gt;48</title>
<path fill="none" stroke="black" d="M1746.68,-348.21C1737.16,-335.95 1724.09,-319.11 1713.32,-305.24"/>
<polygon fill="black" stroke="black" points="1715.86,-302.8 1706.96,-297.05 1710.33,-307.09 1715.86,-302.8"/>
<text text-anchor="middle" x="1752.22" y="-318.8" font-family="Times,serif" font-size="14.00">Addend</text>
</g>
<!-- 47&#45;&gt;48 -->
<g id="edge42" class="edge">
<title>47&#45;&gt;48</title>
<path fill="none" stroke="black" d="M1588.6,-348.21C1608.88,-335.05 1637.26,-316.63 1659.43,-302.25"/>
<polygon fill="black" stroke="black" points="1661.41,-305.14 1667.89,-296.76 1657.6,-299.27 1661.41,-305.14"/>
<text text-anchor="middle" x="1658.22" y="-318.8" font-family="Times,serif" font-size="14.00">Addend</text>
</g>
<!-- 48&#45;&gt;49 -->
<g id="edge44" class="edge">
<title>48&#45;&gt;49</title>
<path fill="none" stroke="black" d="M1736.79,-262.01C1773.98,-248.21 1827.89,-228.2 1868.1,-213.27"/>
<polygon fill="black" stroke="black" points="1869.33,-216.55 1877.49,-209.79 1866.9,-209.99 1869.33,-216.55"/>
<text text-anchor="middle" x="1840.72" y="-231.8" font-family="Times,serif" font-size="14.00">SltLhs</text>
</g>
<!-- 50 -->
<g id="node51" class="node">
<title>50</title>
<ellipse fill="none" stroke="black" cx="1922.72" cy="-105" rx="258.05" ry="18"/>
<text text-anchor="middle" x="1922.72" y="-101.3" font-family="Times,serif" font-size="14.00">Stack((Intrinsics: [CallDataSize], Calldata Offsets: [NodeIndex(37)]))</text>
</g>
<!-- 49&#45;&gt;50 -->
<g id="edge46" class="edge">
<title>49&#45;&gt;50</title>
<path fill="none" stroke="black" d="M1922.72,-173.8C1922.72,-162.16 1922.72,-146.55 1922.72,-133.24"/>
<polygon fill="black" stroke="black" points="1926.22,-133.18 1922.72,-123.18 1919.22,-133.18 1926.22,-133.18"/>
<text text-anchor="middle" x="1940.72" y="-144.8" font-family="Times,serif" font-size="14.00">IsZero</text>
</g>
<!-- 52 -->
<g id="node53" class="node">
<title>52</title>
<ellipse fill="none" stroke="black" cx="2089.72" cy="-18" rx="57.39" ry="18"/>
<text text-anchor="middle" x="2089.72" y="-14.3" font-family="Times,serif" font-size="14.00">Code(0x822)</text>
</g>
<!-- 50&#45;&gt;52 -->
<g id="edge48" class="edge">
<title>50&#45;&gt;52</title>
<path fill="none" stroke="black" d="M1946.24,-86.92C1961.11,-76.59 1980.99,-63.59 1999.72,-54 2013.3,-47.04 2028.6,-40.61 2042.67,-35.21"/>
<polygon fill="black" stroke="black" points="2044.06,-38.43 2052.19,-31.64 2041.6,-31.87 2044.06,-38.43"/>
<text text-anchor="middle" x="2078.72" y="-57.8" font-family="Times,serif" font-size="14.00">ConditionalJumpConditional</text>
</g>
<!-- 51 -->
<g id="node52" class="node">
<title>51</title>
<ellipse fill="none" stroke="black" cx="2256.72" cy="-105" rx="57.69" ry="18"/>
<text text-anchor="middle" x="2256.72" y="-101.3" font-family="Times,serif" font-size="14.00">Stack(0x822)</text>
</g>
<!-- 51&#45;&gt;52 -->
<g id="edge47" class="edge">
<title>51&#45;&gt;52</title>
<path fill="none" stroke="black" d="M2228.99,-89.11C2210.11,-79.04 2184.5,-65.53 2161.72,-54 2151.17,-48.66 2139.68,-43 2129.04,-37.83"/>
<polygon fill="black" stroke="black" points="2130.48,-34.64 2119.95,-33.43 2127.43,-40.94 2130.48,-34.64"/>
<text text-anchor="middle" x="2248.22" y="-57.8" font-family="Times,serif" font-size="14.00">ConditionalJumpLoc</text>
</g>
<!-- 53&#45;&gt;54 -->
<g id="edge50" class="edge">
<title>53&#45;&gt;54</title>
<path fill="none" stroke="black" d="M2309.08,-521.8C2306.61,-510.16 2303.31,-494.55 2300.49,-481.24"/>
<polygon fill="black" stroke="black" points="2303.85,-480.23 2298.36,-471.18 2297.01,-481.68 2303.85,-480.23"/>
<text text-anchor="middle" x="2349.72" y="-492.8" font-family="Times,serif" font-size="14.00">ReturnMemLoc</text>
</g>
</g>
</svg>
